<?xml version="1.0" encoding="UTF-8" standalone="no"?>
<!DOCTYPE svg PUBLIC "-//W3C//DTD SVG 20010904//EN" "http://www.w3.org/TR/2001/REC-SVG-20010904/DTD/svg10.dtd">
<svg version="1.0" xmlns="http://www.w3.org/2000/svg" width="649.000000pt" height="660.000000pt" viewBox="0 0 649.000000 660.000000" preserveAspectRatio="xMidYMid meet">
<metadata>
Created by potrace 1.16, written by Peter Selinger 2001-2019
</metadata>
<g transform="translate(0.000000,660.000000) scale(0.100000,-0.100000)" fill="#000000" stroke="none">
<path d="M3275 6500 c-11 -5 -37 -9 -57 -9 -45 -1 -133 -44 -154 -76 -19 -29 -45 -36 -75 -19 -36 20 -63 17 -89 -11 -14 -15 -44 -29 -77 -36 -90 -20 -134 -69 -112 -126 5 -16 30 -48 55 -73 41 -42 45 -51 53 -117 6 -50 18 -89 40 -126 36 -63 40 -115 12 -141 -28 -25 -55 -13 -86 40 -22 38 -29 43 -45 34 -23 -13 -41 -72 -33 -111 6 -30 45 -69 69 -69 7 0 19 -8 26 -18 18 -26 51 -42 88 -42 25 0 42 -11 85 -55 29 -30 57 -55 63 -55 16 0 33 -61 26 -96 -4 -24 -1 -38 10 -49 9 -9 16 -30 16 -47 0 -17 3 -28 6 -25 4 3 16 2 26 -4 16 -9 19 -17 14 -42 -3 -16 -15 -36 -26 -44 -11 -8 -20 -21 -20 -29 0 -9 -11 -14 -30 -14 -16 0 -30 5 -30 11 0 6 9 9 20 6 23 -6 27 8 5 17 -8 3 -15 12 -15 20 0 11 -7 8 -26 -9 -18 -17 -25 -31 -21 -45 3 -11 -1 -27 -9 -34 -17 -18 -18 -50 -1 -76 10 -17 9 -22 -2 -29 -8 -5 -11 -16 -8 -25 5 -12 20 -16 56 -16 45 0 51 -3 57 -24 3 -13 17 -29 30 -37 15 -7 20 -15 14 -19 -13 -8 -3 -60 12 -60 5 0 17 4 27 10 23 12 90 -6 98 -26 3 -8 -3 -26 -13 -41 -16 -26 -18 -26 -24 -8 -4 11 -6 23 -4 26 2 3 -5 5 -14 4 -30 -3 -62 -16 -62 -26 0 -5 -8 -9 -17 -9 -16 -1 -16 -2 1 -15 11 -8 27 -13 35 -11 9 2 26 7 38 11 16 4 30 -1 48 -19 13 -13 34 -27 45 -31 11 -3 20 -12 20 -18 0 -29 -21 -80 -37 -92 -15 -11 -16 -16 -5 -27 11 -11 17 -8 37 16 25 31 34 31 138 6 59 -15 72 -10 86 30 l11 32 -30 -6 c-39 -7 -49 14 -26 50 12 17 23 23 36 19 22 -7 37 12 22 27 -8 8 -16 7 -27 -2 -13 -10 -15 -9 -15 6 0 11 9 30 19 43 16 21 17 28 6 55 -7 16 -20 32 -28 35 -11 5 -12 12 -6 30 8 19 15 22 39 19 24 -4 30 -1 30 14 0 11 7 18 19 18 19 0 61 47 61 67 0 6 11 15 24 21 21 9 23 15 16 44 -28 109 -38 121 -95 113 -32 -5 -46 -2 -65 13 -23 19 -24 23 -13 53 11 29 10 35 -6 53 -31 34 -30 71 2 104 23 24 30 42 34 90 5 56 8 61 32 64 19 2 28 11 35 38 5 19 16 39 23 43 24 15 14 39 -34 83 -34 32 -54 43 -68 39 -11 -3 -35 -8 -52 -12 -33 -6 -42 -20 -24 -39 14 -14 62 -107 57 -111 -6 -6 -42 48 -50 74 -4 12 -15 25 -26 28 -19 6 -33 44 -25 68 3 7 -1 20 -10 27 -14 12 -20 12 -38 0 -12 -7 -38 -13 -58 -11 -22 1 -41 -4 -49 -14 -19 -23 -39 -18 -46 12 -13 49 4 58 109 61 96 3 97 3 122 36 20 26 25 45 26 97 1 35 -5 87 -14 115 -18 60 -11 76 43 104 87 44 140 9 118 -77 -8 -32 -6 -53 6 -96 21 -73 20 -122 -4 -199 -11 -34 -20 -66 -20 -69 0 -3 13 -6 29 -6 26 0 53 -11 136 -56 41 -22 57 -27 150 -49 92 -22 109 -24 149 -15 33 7 76 44 76 65 0 8 9 29 20 48 32 52 19 81 -49 110 -93 41 -100 46 -121 88 -26 55 -14 101 40 150 22 20 44 36 48 36 4 0 22 13 40 29 51 47 44 66 -60 170 -84 84 -94 91 -122 85 -23 -4 -39 0 -56 14 -48 37 -67 43 -97 31 -15 -6 -55 -15 -88 -20 -33 -5 -88 -24 -123 -42 -73 -37 -81 -34 -127 36 -16 25 -42 53 -57 61 -28 17 -81 20 -113 6z"/>
<path d="M1981 6271 c-8 -5 -22 -24 -31 -43 -15 -31 -19 -33 -60 -31 -25 2 -50 0 -56 -5 -6 -4 -40 -53 -74 -109 -54 -89 -62 -107 -56 -136 11 -57 37 -72 121 -70 71 3 74 2 100 -29 18 -22 25 -40 23 -62 -3 -31 -4 -31 -52 -28 -48 3 -49 3 -108 -60 -33 -35 -63 -73 -68 -85 -11 -27 5 -79 27 -87 18 -7 73 30 73 49 0 30 66 34 103 5 35 -27 67 -25 142 10 51 24 69 28 89 20 35 -13 77 -81 83 -132 4 -38 2 -45 -24 -64 -15 -12 -48 -24 -73 -28 -53 -8 -140 -80 -140 -115 0 -23 35 -43 80 -47 113 -11 152 -21 173 -47 15 -19 35 -28 62 -32 31 -4 48 -14 77 -47 21 -24 36 -49 33 -56 -3 -8 -5 -20 -5 -29 0 -10 -5 -13 -17 -8 -10 4 -39 8 -65 9 -40 2 -48 0 -57 -21 -14 -31 -14 -40 1 -25 25 25 28 10 4 -21 -15 -19 -26 -40 -26 -49 0 -8 -7 -23 -16 -34 -15 -19 -16 -19 -9 1 17 47 16 51 -9 63 -21 9 -27 9 -35 -6 -6 -10 -11 -12 -11 -4 0 14 -44 -5 -91 -41 -23 -16 -26 -24 -22 -58 4 -25 2 -39 -6 -39 -6 0 -11 -6 -11 -13 0 -14 163 -77 199 -77 29 0 47 -45 30 -77 -19 -35 1 -52 57 -45 55 6 69 -9 48 -49 -16 -32 -49 -46 -68 -30 -8 6 -21 9 -30 5 -18 -7 -32 -47 -21 -63 10 -18 39 -13 53 9 14 22 42 27 42 7 0 -26 -32 -56 -65 -63 -20 -3 -35 -12 -35 -20 0 -21 -37 -36 -74 -30 -26 4 -37 1 -54 -19 -21 -25 -52 -34 -52 -16 0 10 57 61 69 61 10 0 31 46 31 65 0 17 -50 21 -66 5 -15 -15 -69 4 -68 23 2 24 -15 21 -60 -9 -30 -21 -37 -31 -33 -50 6 -32 -35 -78 -62 -69 -12 3 -21 0 -25 -10 -3 -8 0 -15 7 -15 7 0 -1 -11 -18 -24 -27 -22 -31 -23 -47 -9 -10 9 -18 26 -18 37 -1 19 -3 18 -16 -6 -8 -16 -21 -28 -28 -28 -8 0 -22 12 -32 28 -9 15 -25 33 -35 40 -14 10 -17 20 -12 45 l6 32 -26 -18 c-14 -9 -37 -17 -51 -17 -19 0 -23 4 -19 21 3 11 -1 32 -8 46 -11 21 -12 27 -1 31 16 5 52 43 52 54 0 4 -4 8 -10 8 -5 0 -10 7 -10 15 0 20 14 19 35 -1 13 -13 21 -14 44 -5 19 9 35 9 55 1 28 -10 46 -6 46 10 0 11 -58 97 -71 106 -5 3 -7 20 -3 39 3 19 1 35 -5 39 -12 8 -15 74 -5 100 3 9 16 16 29 16 12 0 38 7 58 15 40 17 57 45 27 45 -12 0 -26 12 -36 31 -8 17 -34 51 -56 75 -39 42 -40 44 -50 150 -5 60 -14 116 -19 126 -10 19 -66 24 -104 9 -28 -11 -55 -2 -55 19 0 18 -30 50 -47 50 -6 0 -16 -7 -23 -15 -16 -20 -43 -5 -73 40 -29 45 -59 52 -103 24 -39 -24 -52 -21 -106 23 -24 19 -31 20 -65 10 -21 -6 -62 -27 -91 -45 -29 -19 -69 -37 -90 -41 -38 -6 -97 -56 -122 -104 -18 -37 -40 -129 -40 -172 0 -37 26 -99 54 -127 6 -7 31 -15 54 -17 23 -2 70 -18 106 -36 l65 -31 50 26 c43 21 49 22 44 8 -6 -16 -5 -16 10 -4 25 20 28 10 10 -28 -21 -42 -9 -63 38 -73 19 -4 46 -10 61 -14 20 -4 42 1 78 20 72 38 98 34 164 -21 50 -40 57 -50 54 -77 -2 -22 -9 -32 -23 -34 -11 -2 -29 -12 -40 -22 -11 -10 -34 -21 -50 -24 -35 -8 -63 -42 -46 -59 7 -7 7 -16 0 -28 -7 -14 -5 -21 10 -28 10 -6 22 -7 26 -3 5 4 5 1 1 -5 -4 -7 -18 -13 -32 -13 -13 0 -24 -5 -24 -11 0 -13 57 -2 85 17 11 8 24 14 30 14 5 0 -7 -11 -28 -25 -31 -21 -37 -32 -38 -63 -2 -29 -3 -31 -6 -10 -4 29 -29 55 -40 44 -4 -4 -2 -11 5 -15 8 -5 1 -8 -17 -8 -38 0 -48 31 -18 52 12 8 16 15 10 15 -7 0 -13 14 -15 31 l-3 32 -32 -33 c-18 -19 -33 -41 -33 -50 0 -9 -6 -30 -14 -46 -10 -19 -13 -45 -9 -77 5 -46 7 -48 31 -42 22 5 24 4 13 -8 -7 -9 -8 -18 -2 -21 5 -3 12 0 14 6 3 7 4 -7 1 -32 -5 -48 -33 -84 -58 -74 -10 4 -13 0 -11 -13 2 -10 4 -24 4 -31 1 -7 6 -10 11 -7 6 3 10 1 10 -4 0 -6 -4 -11 -10 -11 -19 0 -44 -53 -49 -102 -2 -18 -23 -5 -72 42 -29 27 -62 50 -73 52 -36 5 -32 43 8 73 64 49 105 116 112 187 8 79 -7 96 -89 105 -37 4 -64 13 -83 29 -15 13 -32 24 -38 24 -24 0 -76 37 -105 74 -26 33 -31 47 -31 95 0 56 -14 91 -50 118 -36 29 -94 8 -149 -52 -18 -20 -48 -43 -66 -51 -18 -7 -44 -27 -57 -43 -21 -25 -25 -37 -21 -78 5 -47 4 -48 -34 -68 l-38 -20 0 -80 c0 -44 3 -91 7 -104 11 -32 -14 -50 -64 -43 -33 4 -43 0 -78 -32 -22 -20 -44 -36 -48 -36 -17 0 -122 -108 -122 -125 0 -9 -10 -39 -22 -67 -20 -48 -21 -55 -9 -139 20 -140 50 -189 116 -189 30 0 52 8 83 31 42 30 95 41 122 24 7 -4 36 1 66 11 48 16 60 17 121 4 78 -15 102 -37 103 -92 0 -45 23 -61 66 -49 32 9 54 -5 54 -34 0 -8 5 -15 10 -15 6 0 10 -6 10 -13 0 -15 36 -48 44 -40 3 4 6 -2 6 -11 0 -11 5 -16 13 -13 9 3 18 -7 25 -27 7 -18 23 -43 36 -55 23 -22 24 -22 75 -5 29 9 66 31 83 48 17 17 40 31 52 32 12 1 29 5 39 9 28 12 30 -1 5 -28 -13 -14 -28 -32 -35 -40 -13 -17 -16 -123 -3 -166 7 -25 5 -32 -12 -43 -15 -10 -23 -30 -29 -72 -5 -36 -14 -62 -25 -70 -19 -14 -31 -111 -14 -121 25 -16 -13 -142 -48 -158 -27 -12 -94 31 -125 81 -66 104 -78 136 -81 217 -2 38 -8 95 -14 125 -7 30 -14 94 -18 143 -3 48 -8 87 -11 87 -3 0 -23 -14 -44 -31 -21 -17 -43 -28 -49 -24 -5 3 -10 2 -10 -3 0 -6 6 -12 13 -15 31 -12 49 -155 24 -188 -32 -41 -81 -48 -187 -25 -91 19 -96 22 -125 72 -44 75 -121 84 -170 20 -14 -18 -25 -37 -25 -41 0 -4 -11 -22 -24 -40 -34 -45 -49 -105 -51 -217 -2 -87 0 -101 24 -145 26 -47 27 -48 80 -51 44 -3 64 -10 102 -38 36 -26 56 -34 89 -34 31 0 48 -6 61 -22 23 -25 23 -23 3 -42 -20 -20 -63 -11 -85 17 -15 18 -20 19 -47 8 -62 -26 -75 -54 -83 -180 -8 -105 -7 -116 11 -139 14 -17 20 -40 20 -74 0 -42 4 -53 30 -77 39 -35 47 -64 55 -201 8 -111 18 -140 50 -140 19 0 35 -32 35 -69 0 -29 31 -71 54 -71 6 -1 40 -23 76 -50 64 -49 80 -55 130 -51 37 4 57 27 75 86 19 67 38 84 65 60 10 -9 22 -31 25 -49 8 -38 26 -76 36 -76 5 0 19 -11 32 -24 32 -31 26 -64 -19 -112 -39 -41 -40 -50 -18 -148 24 -107 31 -118 94 -159 49 -33 63 -37 93 -32 31 6 42 2 83 -29 26 -20 70 -43 97 -51 45 -13 53 -13 74 1 44 29 57 98 30 164 -27 66 14 123 122 170 32 14 84 -3 104 -34 9 -13 50 -39 91 -59 42 -20 76 -41 76 -47 0 -12 -40 -55 -57 -61 -5 -2 -16 -17 -24 -34 -14 -29 -17 -30 -74 -27 -55 2 -63 0 -99 -31 -37 -31 -38 -36 -32 -72 6 -28 21 -52 57 -87 28 -27 49 -56 49 -68 0 -12 5 -31 11 -42 10 -19 17 -20 75 -14 56 6 64 4 74 -13 18 -34 11 -64 -26 -118 -33 -48 -35 -55 -25 -85 6 -18 32 -59 59 -90 26 -32 57 -70 68 -85 16 -20 29 -27 50 -25 19 1 43 -9 71 -29 l43 -30 96 12 c134 16 142 25 148 149 5 97 17 148 39 162 20 13 56 9 90 -9 52 -27 157 -125 157 -146 0 -11 -23 -44 -50 -73 -51 -54 -59 -78 -38 -117 14 -28 17 -30 116 -105 88 -65 91 -66 159 -53 31 6 50 4 70 -6 24 -12 32 -12 63 1 19 8 46 17 60 18 19 2 31 15 50 53 23 47 25 60 25 205 0 85 -5 182 -12 214 -15 80 -5 108 39 104 24 -2 36 -10 46 -31 9 -18 21 -27 38 -27 13 0 24 5 24 11 0 6 9 22 20 36 11 14 23 43 26 65 8 44 24 51 24 9 0 -37 19 -52 75 -59 31 -3 52 0 69 12 15 10 27 12 31 6 3 -6 4 -10 1 -10 -3 0 -1 -11 3 -23 7 -19 5 -29 -12 -48 -72 -79 -127 -182 -127 -237 0 -37 -22 -85 -55 -122 -57 -62 -38 -108 54 -134 34 -9 61 -21 61 -25 0 -4 16 -16 35 -27 27 -14 37 -16 47 -6 14 14 84 16 93 2 10 -16 81 -12 95 5 7 9 29 22 49 31 124 53 150 77 137 127 -7 29 -47 73 -96 106 -61 40 -74 65 -61 116 19 74 15 88 -30 113 -38 22 -59 55 -62 97 -2 17 -8 20 -32 17 -16 -2 -41 1 -55 7 -21 8 -16 10 32 10 68 1 95 23 105 84 4 26 10 36 19 33 23 -9 5 19 -24 37 -15 9 -45 34 -68 55 -35 32 -42 46 -47 91 -8 63 3 93 42 122 17 13 31 31 31 41 0 17 -2 17 -28 4 -15 -8 -36 -23 -46 -35 -23 -25 -51 -27 -60 -5 -13 34 -6 103 11 113 12 6 17 20 15 42 -3 43 -8 46 -33 23 -20 -18 -21 -18 -35 1 -8 11 -25 32 -39 48 -14 15 -25 39 -25 54 0 22 -14 26 -15 5 -5 -60 -45 -73 -121 -38 -54 25 -57 25 -78 8 -12 -9 -20 -25 -18 -35 5 -24 -25 -22 -38 3 -6 11 -7 19 -1 18 12 -4 14 7 7 42 -3 17 -10 30 -16 30 -12 0 -93 -60 -98 -72 -4 -9 -32 -11 -32 -3 0 3 10 24 21 47 17 34 19 48 11 74 -7 25 -6 40 5 61 10 20 11 29 2 32 -6 2 -19 12 -27 22 -20 23 -26 23 -46 4 -11 -12 -14 -27 -9 -60 5 -41 4 -43 -15 -38 -17 4 -23 -1 -28 -21 -9 -35 -21 -33 -22 5 -1 35 -23 75 -60 106 -19 16 -26 32 -28 62 -1 23 -6 47 -12 54 -6 6 -14 25 -18 41 -6 25 -5 28 11 22 12 -4 26 2 43 19 13 14 31 25 38 25 8 0 21 12 30 26 10 14 30 39 46 56 15 16 28 36 28 44 0 19 48 94 60 94 14 0 -11 -52 -35 -72 -19 -15 -19 -17 -2 -36 17 -19 17 -20 -7 -40 -15 -11 -26 -27 -26 -36 0 -9 -18 -27 -40 -41 -22 -14 -40 -30 -40 -35 0 -5 -13 -21 -29 -36 -21 -18 -30 -37 -33 -65 -3 -37 -2 -40 19 -34 15 3 28 -2 41 -15 19 -20 19 -20 45 18 15 21 27 47 27 58 0 19 28 54 43 54 12 0 8 -45 -5 -58 -10 -10 -10 -15 2 -22 10 -6 25 1 52 22 35 27 38 34 39 81 3 84 3 87 18 96 18 11 41 3 41 -14 0 -36 39 -26 44 11 4 29 25 28 36 -2 9 -23 8 -31 -8 -47 -11 -10 -35 -22 -53 -26 -29 -6 -34 -12 -41 -44 -9 -41 -65 -107 -91 -107 -19 0 -31 -16 -18 -24 5 -4 12 -2 16 4 11 17 25 11 38 -18 6 -15 15 -31 20 -37 4 -5 14 -19 21 -29 9 -13 19 -17 31 -12 17 6 17 7 0 20 -21 15 -14 46 9 46 8 0 24 -13 36 -30 22 -31 57 -39 78 -18 8 8 15 8 28 -3 14 -12 19 -10 35 10 11 13 19 36 19 52 0 34 13 44 30 23 7 -8 19 -13 26 -10 7 3 16 1 19 -5 4 -5 11 -7 16 -4 11 7 12 65 2 65 -5 1 -21 11 -37 24 l-29 24 23 37 c12 20 21 38 19 39 -12 11 -48 15 -54 6 -9 -15 -45 -12 -45 4 0 8 5 18 11 21 6 4 8 14 5 22 -3 8 -3 26 0 39 5 20 11 24 38 20 17 -2 38 -6 46 -10 18 -7 41 35 33 63 -4 15 2 21 29 26 18 4 52 23 76 42 23 19 42 30 42 24 0 -6 -16 -21 -35 -33 -20 -13 -38 -33 -41 -45 -3 -13 -10 -20 -15 -17 -5 3 -9 -2 -9 -10 0 -8 -9 -20 -19 -26 -25 -13 -37 -49 -21 -64 10 -8 14 -8 17 2 3 7 16 17 29 22 13 5 24 16 24 24 0 9 6 13 14 10 8 -3 19 3 26 15 8 15 21 21 45 21 19 0 35 -5 35 -11 0 -6 -7 -9 -15 -5 -18 6 -45 -2 -45 -15 0 -5 9 -9 19 -9 10 0 22 -8 26 -17 6 -17 7 -17 18 -2 7 9 21 18 32 21 13 2 20 11 19 25 0 12 3 20 7 17 4 -2 11 16 14 40 6 39 4 49 -20 80 -19 24 -35 36 -52 36 -20 0 -24 -4 -18 -18 4 -12 3 -14 -5 -6 -6 6 -13 18 -14 25 -2 8 -8 27 -15 43 -6 16 -9 36 -6 43 8 24 -13 51 -42 55 -23 2 -28 8 -29 32 -1 18 -10 36 -25 47 -13 10 -20 19 -15 19 6 0 22 -12 38 -27 26 -24 28 -25 34 -7 23 75 48 82 43 12 -4 -47 19 -67 55 -50 11 6 30 12 41 14 11 2 20 11 20 19 0 35 59 75 140 94 29 6 29 6 11 -14 -11 -12 -28 -21 -38 -21 -37 0 -68 -30 -68 -65 0 -50 33 -54 78 -9 40 40 42 41 42 14 0 -21 -35 -63 -60 -72 -12 -4 -12 -9 -1 -36 13 -32 43 -43 56 -22 4 6 14 10 23 8 26 -4 42 11 42 37 0 30 16 41 36 24 24 -19 75 45 71 89 -3 29 -1 33 17 28 12 -3 35 -6 51 -6 28 -1 29 -2 8 -10 -13 -5 -23 -16 -23 -23 0 -8 -9 -26 -20 -40 -20 -26 -20 -26 -1 -36 28 -15 45 -6 69 38 27 48 72 70 72 36 0 -8 -9 -15 -20 -15 -11 0 -20 -4 -20 -8 0 -14 22 -31 35 -26 7 3 15 -2 19 -11 4 -12 1 -15 -12 -13 -10 1 -31 -6 -48 -17 -16 -10 -42 -19 -59 -20 -29 0 -30 -2 -33 -49 -3 -52 12 -82 28 -56 8 13 13 12 42 -4 18 -10 43 -28 55 -39 21 -18 26 -19 50 -7 16 8 35 19 43 26 8 6 32 14 52 17 34 5 37 3 47 -24 9 -25 15 -30 38 -27 22 2 29 9 31 32 4 28 4 29 55 23 47 -4 56 -2 86 24 34 28 35 28 49 8 13 -19 14 -19 53 10 25 18 48 27 60 24 29 -8 23 -23 -10 -23 -17 0 -32 -4 -35 -9 -8 -12 72 -8 83 5 4 5 13 24 19 42 9 25 8 32 -2 32 -7 0 -25 9 -40 21 -30 23 -31 23 -96 -38 -22 -20 -40 -29 -48 -24 -8 5 1 15 30 31 23 13 37 25 31 27 -23 8 -2 33 22 27 13 -3 26 -1 29 5 11 17 23 13 29 -9 3 -14 14 -20 31 -20 35 0 33 23 -4 50 -16 12 -30 30 -30 40 0 24 -18 29 -53 17 -38 -13 -44 -3 -50 68 -3 33 -10 72 -16 88 -12 31 -51 51 -63 33 -5 -8 -8 -7 -8 2 0 7 -7 12 -16 10 -10 -2 -19 3 -22 10 -3 9 3 13 19 10 18 -2 25 2 27 19 2 11 -3 27 -10 34 -8 7 -12 24 -10 39 6 39 -18 55 -62 40 -19 -6 -41 -10 -48 -9 -27 3 -36 -1 -41 -21 -5 -20 -6 -20 -39 -3 -44 24 -49 32 -41 72 6 34 6 34 -27 28 -18 -4 -35 -7 -39 -7 -3 0 -12 -13 -19 -30 -12 -26 -16 -28 -28 -16 -9 10 -26 13 -47 9 -25 -4 -39 0 -52 13 -18 19 -18 19 10 24 30 5 47 30 21 30 -18 0 -21 22 -6 50 9 18 8 19 -18 14 -21 -4 -31 -2 -35 10 -4 9 -2 16 4 16 13 0 1 42 -14 52 -7 4 -7 11 2 21 9 11 9 17 1 22 -15 10 -21 2 -23 -31 -2 -23 -8 -30 -32 -34 l-29 -5 39 -38 c34 -33 38 -41 29 -64 -5 -14 -16 -28 -24 -30 -13 -4 -13 -3 0 6 12 9 10 11 -12 11 -32 0 -61 47 -46 74 12 21 6 29 -15 21 -19 -8 -30 -46 -17 -59 16 -16 12 -26 -9 -26 -11 0 -21 -5 -23 -10 -4 -14 -48 18 -48 36 0 8 4 14 9 14 5 0 16 11 25 25 17 26 17 26 -11 19 -15 -4 -36 -15 -46 -26 -13 -13 -22 -16 -31 -9 -6 5 -24 12 -40 15 -15 3 -34 10 -42 17 -11 9 -20 8 -40 -6 -25 -16 -74 -14 -74 3 0 5 14 21 30 37 24 23 33 27 39 16 12 -20 54 -9 67 17 14 29 27 13 18 -22 -4 -18 -1 -27 14 -35 17 -9 21 -7 27 12 14 42 14 66 -1 78 -20 16 -17 39 5 39 10 0 30 18 46 40 30 44 40 50 30 21 -7 -22 19 -57 55 -74 14 -7 32 -27 40 -44 16 -35 33 -44 28 -16 -2 11 8 22 25 31 28 14 36 32 14 32 -7 0 -18 -5 -25 -12 -16 -16 -66 7 -58 27 3 9 -1 15 -10 15 -11 0 -14 6 -8 23 7 24 21 36 44 38 10 0 11 2 3 6 -7 2 -13 12 -13 22 0 9 6 23 13 30 10 11 8 12 -9 7 -18 -6 -21 -2 -22 29 -1 19 3 35 9 35 6 0 7 5 4 10 -4 6 -18 -2 -35 -20 -15 -16 -33 -30 -40 -30 -6 0 -10 -10 -8 -22 2 -15 10 -23 23 -23 13 0 20 -7 20 -20 0 -28 -39 -27 -43 1 -2 12 -15 32 -29 45 -20 18 -25 20 -20 7 11 -32 0 -19 -21 22 -15 31 -16 40 -6 40 8 0 14 4 14 8 0 4 10 8 21 9 29 2 30 4 20 39 -6 21 -13 28 -28 27 -16 -2 -20 3 -19 27 1 16 7 32 14 35 6 2 12 18 12 35 0 24 -6 33 -27 41 -16 6 -40 22 -55 37 -23 21 -28 22 -28 9 0 -33 -29 -17 -40 21 -5 21 -21 49 -35 62 -27 26 -33 47 -12 47 7 0 14 -8 14 -18 3 -31 124 -126 145 -113 4 3 3 16 -2 29 -9 25 -7 27 28 25 4 -1 5 -13 4 -27 -3 -21 0 -25 13 -19 9 3 19 6 21 6 10 0 3 29 -8 33 -10 3 -10 11 -1 37 15 39 1 69 -23 49 -10 -8 -12 -4 -9 20 2 18 -1 31 -7 31 -7 0 -6 5 2 15 10 12 5 17 -25 30 -21 8 -45 15 -54 15 -20 0 -36 11 -45 30 -4 9 -5 7 -2 -6 4 -24 -42 -83 -60 -77 -6 2 -17 -10 -24 -26 -19 -46 -62 -52 -73 -10 -7 27 -27 24 -27 -5 0 -27 -33 -56 -62 -56 -20 0 -24 -16 -6 -22 8 -3 7 -11 -5 -28 l-17 -24 0 22 c0 26 1 26 -39 6 -43 -21 -62 -13 -55 24 8 41 -33 81 -52 51 -4 -7 4 -20 17 -30 13 -10 22 -19 19 -19 -3 -1 -29 -3 -57 -6 -48 -5 -53 -3 -53 15 0 12 -7 21 -15 21 -8 0 -15 5 -15 10 0 6 3 9 8 8 9 -4 92 79 92 92 0 15 36 12 49 -4 10 -11 9 -16 -3 -23 -12 -7 -12 -12 -2 -31 l13 -24 32 28 c18 14 30 33 27 40 -11 29 78 56 98 29 8 -11 23 -13 64 -9 44 6 52 10 52 27 0 16 -3 18 -12 9 -17 -17 -39 -15 -36 4 2 10 -3 19 -9 21 -7 3 -13 -2 -13 -10 0 -22 -30 -30 -36 -9 -3 9 -10 25 -15 34 -5 10 -9 25 -9 33 0 8 -4 15 -10 15 -5 0 -10 -7 -10 -15 0 -12 -7 -14 -26 -9 -29 7 -44 -7 -44 -43 0 -14 -6 -23 -15 -23 -8 0 -15 -4 -15 -10 0 -5 -5 -10 -10 -10 -6 0 -9 3 -8 8 1 4 -3 17 -10 28 -6 12 -8 25 -4 30 4 5 -2 1 -14 -9 -23 -19 -34 -22 -34 -8 0 11 47 42 67 45 9 2 19 9 24 18 7 13 2 15 -28 14 -29 -1 -39 4 -48 21 -7 13 -15 20 -18 16 -4 -3 -7 1 -7 10 0 28 -22 31 -41 6 -13 -16 -17 -33 -13 -51 5 -25 3 -28 -20 -28 -21 0 -26 5 -26 25 0 29 -24 33 -54 10 -21 -16 -46 -4 -46 21 0 19 -19 53 -50 87 l-25 28 21 17 c18 14 22 28 23 89 1 80 3 78 -82 88 -39 5 -57 12 -57 21 0 8 -7 14 -15 14 -13 0 -15 7 -10 34 4 20 2 36 -4 40 -14 9 -14 73 0 82 7 4 9 21 6 40 -5 29 -3 34 14 34 10 0 19 4 19 8 0 13 50 33 69 28 9 -3 22 -2 30 3 24 15 4 40 -38 47 -24 4 -48 16 -61 31 -12 14 -28 22 -36 19 -16 -6 -20 9 -4 19 14 9 1 32 -21 38 -22 6 -17 29 13 59 25 25 22 40 -12 60 -19 11 -30 25 -30 39 0 13 -10 33 -21 45 l-21 23 22 31 c19 26 21 36 12 55 -9 20 -8 26 4 33 26 14 12 43 -30 65 -44 23 -98 27 -104 7 -8 -24 -54 -60 -76 -60 -12 0 -27 9 -34 20 -7 12 -17 18 -22 15 -15 -9 -12 31 3 47 12 12 45 63 81 120 9 15 34 37 55 47 24 13 41 30 45 45 3 14 16 34 27 45 31 29 33 84 3 112 -13 12 -24 26 -24 31 0 20 -43 98 -54 98 -7 0 -25 13 -41 30 l-28 29 26 39 c15 21 27 50 27 65 0 17 11 37 34 57 25 23 35 42 39 75 9 59 3 70 -46 94 -42 20 -69 19 -144 -4 -15 -5 -27 -1 -39 14 -30 34 -65 28 -96 -17 l-16 -24 -20 20 c-12 12 -24 42 -28 68 -5 33 -17 58 -39 82 -31 35 -53 40 -115 31 -8 -1 -28 1 -45 4 -16 4 -36 3 -44 -2z m-1324 -2017 c63 -21 95 -26 167 -26 83 1 92 -1 115 -24 25 -25 40 -94 21 -94 -6 0 -10 -5 -10 -11 0 -21 -43 -49 -75 -49 -18 0 -43 -9 -56 -19 -21 -18 -23 -22 -11 -41 14 -23 14 -22 -42 -85 -5 -6 -7 0 -4 16 3 18 -1 30 -14 38 -10 6 -18 18 -18 26 0 8 -13 21 -29 30 -16 8 -50 33 -76 55 -40 35 -52 40 -95 40 -63 0 -104 33 -124 98 -21 71 -13 77 88 75 63 -1 105 -8 163 -29z m1343 -274 c0 -6 12 -9 26 -8 16 2 31 -4 37 -14 9 -14 7 -21 -12 -37 -13 -12 -31 -21 -39 -21 -12 0 -12 -3 -2 -15 11 -13 16 -12 41 6 16 11 29 26 29 32 0 7 9 18 21 25 18 12 21 11 26 -8 5 -17 11 -20 34 -15 21 5 31 2 35 -9 10 -27 -16 -48 -53 -44 -18 2 -33 3 -33 1 0 -1 5 -14 12 -28 11 -24 16 -26 52 -21 45 7 63 24 97 94 11 23 28 42 36 42 14 0 15 -2 1 -17 -24 -29 -27 -58 -7 -84 20 -26 25 -44 10 -34 -16 10 -91 -7 -91 -20 0 -16 -27 -27 -35 -15 -11 17 -22 11 -35 -20 -7 -16 -21 -32 -31 -35 -10 -4 -19 -13 -19 -21 0 -8 -7 -17 -15 -20 -22 -9 -18 -21 7 -28 17 -4 28 2 45 22 19 23 24 25 42 15 16 -10 23 -10 36 3 8 8 15 19 15 24 0 15 54 60 72 60 9 0 20 -5 24 -12 5 -8 11 -6 19 6 15 20 65 12 65 -9 0 -22 -20 -28 -39 -11 -13 12 -20 13 -29 4 -7 -7 -12 -16 -12 -20 0 -15 73 -8 91 8 10 9 25 14 34 11 28 -11 16 -43 -29 -74 -37 -26 -43 -35 -39 -57 6 -30 -16 -36 -41 -11 -20 21 -25 19 -19 -6 4 -13 0 -26 -9 -33 -8 -6 -17 -19 -21 -29 -4 -11 -12 -15 -18 -11 -7 4 -18 -1 -25 -11 -11 -15 -16 -16 -29 -5 -8 7 -15 19 -15 28 0 13 -3 13 -19 -2 -12 -11 -17 -25 -13 -38 4 -18 2 -20 -21 -16 -31 6 -31 7 -15 -27 14 -30 30 -28 38 5 7 31 27 37 35 11 10 -34 41 -25 37 11 -3 15 33 32 71 34 34 1 43 6 47 24 4 16 21 28 55 42 56 22 65 31 65 70 0 17 7 29 19 33 11 3 22 12 25 20 4 12 17 10 73 -11 77 -29 93 -40 46 -29 -28 5 -32 4 -27 -9 3 -9 10 -13 15 -10 5 3 14 2 20 -2 8 -4 7 -9 -2 -15 -20 -13 -50 -11 -81 5 -29 16 -37 6 -19 -23 6 -9 6 -22 0 -33 -8 -15 -6 -18 16 -18 14 0 25 4 25 8 0 5 6 17 14 28 13 17 15 14 12 -38 -2 -31 -11 -71 -20 -88 -8 -18 -12 -38 -9 -44 10 -15 10 -39 0 -53 -5 -7 -6 -17 -2 -23 4 -6 -6 -13 -23 -16 -17 -4 -35 -17 -46 -34 -17 -30 -54 -36 -78 -12 -15 15 -28 15 -28 1 0 -6 -9 -23 -20 -39 -22 -30 -18 -40 17 -40 12 0 23 -5 23 -10 0 -11 70 -7 88 4 14 9 33 -19 26 -37 -4 -12 -15 -15 -41 -11 -24 3 -47 -2 -68 -14 -31 -19 -32 -19 -55 0 -21 17 -24 17 -41 2 -21 -19 -25 -44 -7 -44 6 0 9 -2 6 -5 -10 -11 -39 8 -36 24 1 9 -4 27 -11 40 -7 13 -11 39 -9 57 3 23 0 34 -9 34 -7 0 -13 5 -13 10 0 20 -27 9 -55 -22 -26 -29 -29 -30 -41 -13 -11 15 -16 16 -29 5 -11 -9 -15 -9 -15 -1 0 7 -16 19 -36 27 -32 14 -35 17 -22 32 16 19 13 52 -6 52 -22 0 -58 -32 -48 -42 14 -14 -12 -59 -48 -83 -23 -15 -30 -26 -27 -42 2 -13 0 -23 -4 -23 -5 0 -9 -7 -9 -16 0 -10 7 -14 22 -12 16 2 23 -4 29 -26 11 -38 5 -43 -31 -29 -17 6 -28 8 -25 3 3 -4 2 -16 -1 -25 -6 -14 -9 -14 -25 4 -31 33 -40 66 -22 83 12 13 13 19 1 37 -16 27 -35 24 -55 -11 -16 -25 -15 -27 11 -58 26 -32 30 -51 10 -56 -12 -4 -54 63 -54 87 0 11 5 28 12 39 10 16 8 22 -14 42 -33 29 -50 62 -42 82 9 25 22 19 29 -13 4 -19 18 -37 41 -50 19 -11 34 -16 34 -11 0 5 -4 11 -9 14 -5 4 -4 23 3 45 12 40 26 64 26 43 0 -24 16 -11 39 33 14 26 35 50 52 57 24 11 26 14 11 19 -22 8 -73 -27 -66 -45 5 -14 -32 -33 -43 -22 -15 15 -11 65 7 84 17 17 17 22 5 32 -8 7 -15 21 -15 31 0 12 -7 19 -20 19 -31 0 -69 21 -76 42 -3 11 -3 34 0 52 5 26 15 37 46 51 44 20 47 26 25 45 -8 7 -15 27 -15 44 1 26 2 28 11 14 16 -29 29 -21 29 19 0 40 23 73 51 73 24 0 32 -16 31 -57 -1 -18 3 -33 8 -33 6 0 10 9 10 20 0 13 7 20 20 20 24 0 26 22 5 40 -8 7 -15 21 -15 31 0 11 -7 19 -15 19 -8 0 -24 5 -35 12 -18 11 -17 13 18 30 43 20 62 22 62 8z m-252 -347 c0 -16 2 -43 6 -60 6 -25 4 -33 -7 -33 -28 0 -60 -109 -42 -147 5 -13 14 -23 20 -23 5 0 3 -5 -5 -10 -12 -8 -13 -13 -3 -29 10 -15 9 -22 -2 -31 -8 -7 -15 -27 -15 -45 0 -18 -7 -38 -16 -45 -29 -25 -14 -70 36 -105 38 -27 45 -37 42 -61 -2 -16 -10 -36 -18 -45 -18 -20 -18 -35 1 -43 24 -9 18 -36 -8 -36 -48 0 -64 -46 -19 -56 57 -12 72 -25 72 -63 0 -45 6 -54 55 -80 49 -26 64 -15 41 32 -9 19 -16 45 -16 58 0 12 -7 30 -16 40 -8 9 -17 24 -18 32 -1 9 -12 24 -25 34 -16 13 -24 32 -26 61 -4 49 11 65 25 27 6 -15 26 -51 45 -80 19 -28 35 -57 35 -63 0 -6 20 -25 45 -42 l44 -31 -20 -20 c-17 -17 -20 -29 -15 -60 9 -59 -5 -74 -72 -73 -40 0 -57 4 -60 15 -11 40 -12 42 -27 29 -14 -11 -10 -40 5 -40 5 0 31 -22 59 -48 37 -35 51 -56 51 -76 0 -24 -3 -27 -27 -24 -21 2 -29 9 -31 28 -5 31 -17 46 -42 53 -29 8 -33 -7 -9 -37 17 -22 18 -27 6 -32 -9 -3 -24 -1 -36 5 -27 15 -29 14 -23 -14 2 -14 -1 -32 -8 -40 -11 -13 -8 -15 14 -15 15 0 25 4 22 9 -3 5 2 12 11 15 10 4 27 -3 45 -21 32 -30 35 -45 13 -63 -16 -13 -21 -60 -7 -60 4 0 13 5 20 12 7 7 12 10 13 8 9 -63 10 -62 -27 -56 -28 6 -34 4 -36 -11 0 -10 -2 -23 -2 -30 -1 -6 -4 -15 -8 -19 -10 -9 10 -44 25 -44 7 0 18 -9 25 -21 7 -11 19 -18 26 -16 7 3 19 1 27 -3 8 -6 19 -4 30 5 14 13 20 11 52 -18 20 -18 37 -38 37 -45 0 -6 4 -12 10 -12 5 0 21 -18 35 -40 15 -24 33 -40 45 -40 10 0 22 -5 25 -10 3 -6 13 -10 21 -10 20 0 19 69 -1 76 -8 4 -15 14 -15 23 1 12 5 11 20 -8 11 -13 20 -29 20 -37 0 -7 9 -18 20 -24 23 -12 26 -38 6 -46 -10 -4 -13 -18 -11 -42 1 -22 -5 -52 -16 -74 -11 -21 -19 -48 -19 -60 0 -45 -12 -67 -41 -77 -16 -5 -32 -17 -35 -26 -3 -8 -11 -15 -18 -15 -6 0 -24 -14 -40 -30 -26 -27 -27 -30 -10 -30 26 0 80 -57 88 -93 6 -27 26 -29 26 -3 0 17 59 14 70 -3 4 -7 5 -23 3 -35 -4 -21 18 -56 36 -56 4 0 13 11 19 25 8 17 20 25 37 25 21 0 25 5 25 31 0 34 16 69 31 69 5 0 9 -7 7 -16 -2 -10 4 -19 12 -21 13 -4 13 -3 0 6 -12 9 -10 11 11 11 15 0 32 -7 39 -15 7 -8 17 -15 23 -15 7 0 7 4 -1 12 -20 20 -14 26 32 29 32 3 42 1 39 -8 -3 -7 3 -15 13 -19 11 -3 27 -10 38 -15 13 -7 16 -7 11 0 -4 7 4 11 19 11 14 0 26 -6 26 -12 0 -9 3 -9 9 1 7 11 15 10 44 -8 l36 -22 29 31 c16 16 34 30 40 30 7 0 17 9 24 19 11 18 13 18 25 3 17 -24 16 -48 -4 -68 -16 -16 -16 -18 7 -36 24 -19 24 -20 6 -34 -16 -11 -23 -11 -45 0 -29 15 -54 19 -120 17 -33 -1 -41 -4 -33 -13 8 -10 0 -14 -36 -16 -62 -4 -66 -8 -43 -46 l21 -33 -30 -21 c-40 -30 -66 -28 -74 4 -4 14 -12 24 -19 21 -7 -2 -36 -10 -64 -17 -49 -13 -56 -12 -102 9 -27 13 -54 20 -60 17 -6 -4 -16 2 -23 14 -7 11 -20 20 -28 20 -8 0 -30 9 -48 20 -18 11 -45 20 -61 20 -16 0 -44 7 -64 15 -19 8 -37 12 -39 9 -6 -5 -38 58 -38 75 0 17 -71 12 -110 -7 -26 -13 -36 -25 -41 -51 -8 -38 -27 -55 -46 -39 -10 8 -13 42 -12 127 2 121 -8 161 -41 161 -20 0 -70 -47 -70 -66 0 -8 -12 -20 -26 -26 -22 -11 -28 -10 -40 7 -16 22 -18 76 -5 122 7 23 6 33 -2 36 -9 3 -7 14 6 37 20 38 21 59 3 83 -17 22 -26 22 -26 -1 0 -10 -5 -23 -12 -30 -9 -9 -9 -15 0 -24 34 -34 -5 -38 -49 -5 l-31 22 -17 -21 c-9 -12 -34 -27 -54 -35 -20 -7 -37 -17 -37 -21 0 -4 -7 -8 -16 -8 -23 0 -62 45 -70 78 -5 23 -51 120 -116 245 -9 18 -21 59 -28 91 -8 42 -19 65 -36 78 -27 22 -35 74 -9 64 8 -3 18 1 22 8 14 22 39 25 56 6 20 -24 51 -19 55 7 5 32 37 56 66 49 22 -5 23 -8 15 -46 -6 -26 -6 -48 1 -59 11 -21 59 -34 61 -17 1 6 2 18 3 26 2 28 33 21 75 -17 23 -20 49 -52 58 -70 8 -18 19 -33 24 -33 5 0 9 -10 9 -23 0 -29 18 -53 48 -62 16 -5 22 -2 22 9 0 22 -58 134 -72 138 -20 7 -17 154 4 174 19 20 68 12 68 -11 0 -8 5 -15 10 -15 6 0 10 -12 10 -26 0 -14 5 -35 12 -47 6 -12 14 -35 18 -52 8 -40 40 -40 59 -1 13 28 15 28 27 11 15 -20 10 -35 -12 -35 -18 0 -18 -15 2 -45 23 -36 34 -31 34 15 0 32 7 45 35 73 47 46 49 93 6 108 -17 6 -39 26 -50 45 -11 19 -25 34 -31 34 -5 0 -10 4 -10 9 0 5 9 7 20 4 16 -4 20 0 20 20 0 16 8 31 20 37 24 13 27 62 5 80 -8 6 -23 9 -35 5 -19 -6 -19 -8 -5 -28 19 -27 19 -47 0 -47 -9 0 -15 9 -15 24 0 33 -58 76 -104 76 -41 0 -70 33 -72 82 -1 15 -13 43 -28 62 -17 23 -28 53 -32 89 -6 48 -4 56 13 61 17 5 19 16 18 122 -1 77 3 121 11 132 11 15 14 14 23 -11 6 -16 11 -33 11 -39 0 -5 10 -24 22 -40 18 -26 20 -35 11 -59 -8 -21 -8 -32 3 -46 24 -33 17 -46 -14 -24 -33 23 -52 13 -52 -26 0 -13 -5 -23 -12 -23 -21 0 1 -13 24 -14 14 -1 24 -8 26 -19 3 -15 0 -18 -17 -12 -16 5 -21 2 -21 -12 0 -41 12 -63 35 -63 31 0 43 -18 47 -70 3 -38 6 -45 26 -48 19 -3 23 1 20 16 -2 10 3 31 11 46 14 25 13 28 -18 55 -27 24 -33 38 -38 85 -4 36 -2 56 5 56 11 0 24 -28 17 -39 -2 -5 9 -20 24 -35 22 -21 35 -26 51 -21 13 4 19 12 16 21 -3 7 4 18 14 24 15 8 20 21 20 49 0 22 6 44 15 51 18 15 20 56 3 66 -7 4 -23 8 -36 9 -13 0 -29 8 -36 16 -6 9 -23 24 -39 34 -24 15 -25 19 -12 29 39 28 77 119 73 174 -3 44 -5 47 -30 47 -36 -1 -37 24 -3 53 14 12 28 36 32 53 3 17 16 37 29 46 28 18 30 44 8 78 -15 23 -15 25 0 25 9 0 16 5 16 10 0 6 4 10 9 10 5 0 9 -12 9 -27z m-258 -38 c-12 -13 -26 -42 -30 -65 -6 -35 -4 -43 13 -55 15 -11 21 -27 23 -65 2 -48 2 -49 -18 -39 -18 10 -27 5 -65 -33 -34 -34 -46 -54 -50 -86 -6 -41 -5 -42 24 -42 39 0 46 -9 28 -36 -8 -12 -16 -37 -17 -54 -3 -39 -13 -46 -35 -24 -16 15 -17 15 -24 -2 -12 -31 -10 -66 6 -84 16 -17 19 -36 17 -87 -2 -29 -5 -33 -30 -33 -18 0 -38 10 -54 28 -57 60 -59 101 -7 128 25 12 29 19 22 37 -4 12 -7 47 -8 77 0 47 -3 56 -23 65 -24 11 -31 41 -7 31 10 -4 15 1 15 15 0 11 7 22 15 25 23 9 85 74 85 89 0 8 -4 17 -10 20 -5 3 -10 16 -10 29 0 12 -6 28 -12 35 -11 10 -9 15 7 27 11 9 32 18 47 21 30 6 54 36 60 73 1 14 14 30 28 37 33 17 39 -1 10 -32z m1605 -205 c8 -7 24 -10 35 -7 11 3 20 1 20 -4 0 -5 7 -9 15 -9 7 0 19 -8 24 -17 10 -17 12 -16 30 7 l20 25 10 -28 c6 -16 11 -32 11 -36 0 -5 13 -11 28 -14 26 -5 28 -9 24 -42 -3 -23 1 -42 11 -53 18 -20 8 -53 -22 -74 -20 -14 -20 -14 2 -53 22 -40 46 -52 55 -27 2 7 -2 10 -11 6 -30 -11 -29 19 2 49 29 29 31 30 44 13 12 -17 15 -16 45 18 38 44 39 55 7 79 -22 16 -27 16 -40 3 -8 -8 -24 -12 -35 -9 -16 4 -18 9 -9 25 9 17 17 19 47 13 21 -4 43 -11 50 -17 7 -6 30 -8 52 -5 l40 5 -2 -44 c-2 -52 6 -63 32 -46 23 14 47 7 60 -18 14 -26 -11 -43 -50 -35 -19 4 -36 2 -46 -6 -11 -9 -20 -9 -40 0 -40 18 -53 13 -68 -24 -8 -19 -23 -38 -33 -42 -10 -4 -25 -16 -34 -27 -14 -17 -20 -18 -50 -7 -25 9 -35 9 -38 0 -2 -6 -12 -19 -22 -27 -11 -9 -19 -26 -19 -38 0 -25 -24 -48 -43 -41 -7 2 -13 16 -15 31 -1 19 5 29 26 40 15 9 23 16 17 16 -5 0 8 16 30 35 l40 34 -37 -2 c-31 -2 -37 -6 -42 -29 -4 -23 -11 -28 -35 -28 -35 0 -52 19 -44 48 4 18 1 22 -18 22 -23 0 -23 0 6 28 17 16 35 37 41 47 9 17 15 18 36 8 24 -11 25 -10 20 9 -3 11 -13 23 -24 25 -22 6 -23 22 -4 48 12 16 16 17 30 6 14 -12 16 -11 16 8 0 12 -7 24 -15 27 -8 4 -15 14 -15 24 0 32 -18 31 -29 0 -7 -23 -16 -30 -35 -30 -27 0 -34 14 -15 26 8 4 7 9 -2 14 -21 13 -36 1 -31 -26 3 -17 -2 -30 -14 -39 -26 -20 -48 -19 -40 2 4 9 3 19 -1 22 -19 14 -44 64 -36 72 11 11 61 13 91 4 17 -6 22 -3 22 9 0 21 -29 33 -39 17 -6 -9 -11 -8 -21 4 -7 8 -28 15 -46 15 -34 0 -48 22 -21 33 20 9 87 0 102 -13z m-40 -353 c4 -15 18 -27 37 -33 44 -13 57 -37 38 -72 -9 -15 -24 -28 -35 -31 -16 -3 -54 -38 -55 -51 0 -3 11 -10 25 -16 19 -9 27 -9 36 2 13 16 36 18 41 4 4 -12 91 19 119 43 20 17 41 23 37 10 -2 -5 17 -26 42 -49 30 -28 53 -41 70 -40 23 1 25 -2 22 -26 -2 -16 -12 -30 -23 -33 -10 -4 -19 -11 -19 -16 0 -13 -37 -11 -46 2 -3 6 -1 15 6 19 18 11 3 30 -25 30 -17 0 -24 -5 -23 -17 4 -46 -3 -63 -27 -69 -21 -5 -23 -10 -18 -37 7 -38 14 -47 21 -28 10 30 52 62 72 56 12 -4 26 1 39 14 33 33 59 43 81 31 16 -9 18 -14 8 -35 -9 -20 -16 -23 -39 -18 -25 5 -29 2 -29 -16 0 -12 6 -21 15 -21 13 0 20 -19 16 -43 -1 -4 13 -7 31 -6 54 4 88 0 88 -11 0 -5 -20 -10 -45 -10 -25 0 -57 -7 -71 -16 -26 -18 -46 -12 -26 8 20 20 13 35 -20 42 -38 7 -43 4 -29 -22 9 -17 8 -22 -9 -27 -11 -3 -25 -15 -30 -25 -11 -21 -40 -17 -40 6 0 8 -5 14 -10 14 -7 0 -7 -7 0 -21 6 -11 9 -25 7 -32 -2 -7 -10 0 -17 15 -7 15 -16 26 -19 23 -4 -2 -8 8 -9 22 -3 40 -11 45 -60 38 -38 -6 -44 -4 -39 9 4 10 1 16 -9 16 -8 0 -19 10 -23 23 -10 26 13 59 36 50 13 -5 32 11 33 28 0 4 -12 9 -27 12 -22 5 -33 0 -54 -24 -30 -32 -82 -48 -94 -28 -5 7 -1 17 8 24 10 7 17 22 17 33 0 11 9 27 21 36 l21 14 -21 11 c-18 10 -21 9 -21 -7 0 -11 -7 -25 -15 -32 -20 -16 -115 -25 -115 -11 0 6 5 11 10 11 7 0 7 7 0 21 -6 11 -9 25 -6 32 2 7 5 4 5 -5 1 -10 6 -18 12 -18 6 0 8 8 5 18 -4 12 7 33 34 62 22 25 40 52 40 60 0 10 3 11 12 2 8 -8 16 -2 30 25 25 45 17 52 -22 19 -30 -25 -60 -33 -73 -20 -3 4 12 24 33 44 22 21 40 43 40 49 0 21 30 11 35 -12z m-758 -359 c-2 -7 -11 -12 -21 -10 -24 4 -21 -34 4 -41 20 -5 29 -47 10 -47 -21 0 -9 -37 19 -57 25 -19 30 -20 44 -6 13 14 16 11 22 -26 4 -22 10 -43 15 -46 14 -8 32 23 25 45 -4 11 -2 20 4 20 6 0 11 -4 11 -9 0 -5 10 -11 23 -14 12 -2 30 -8 40 -12 12 -5 17 -2 18 11 0 11 3 14 6 7 2 -7 12 -13 21 -13 10 0 28 -9 42 -20 14 -11 35 -20 46 -20 46 0 129 -50 107 -63 -6 -4 -9 -56 -4 -75 1 -1 10 2 21 8 26 14 25 44 -1 81 -39 55 2 57 94 6 27 -15 54 -23 66 -20 16 4 21 1 21 -16 0 -18 3 -19 26 -10 15 5 29 8 31 5 2 -2 -5 -23 -16 -47 -12 -23 -21 -55 -21 -71 0 -31 -3 -33 -31 -17 -16 8 -25 7 -37 -3 -23 -19 -69 -38 -92 -38 -13 0 -26 -13 -37 -37 -14 -29 -24 -38 -43 -38 -26 0 -29 12 -15 48 6 14 1 17 -30 17 -36 0 -37 -1 -22 -18 26 -29 22 -44 -8 -30 -14 6 -25 14 -25 17 1 3 5 25 9 49 5 23 6 40 3 37 -10 -9 -42 49 -42 77 0 15 -5 30 -10 33 -19 12 -1 22 30 17 32 -5 39 -22 15 -42 -25 -21 -17 -29 27 -27 40 2 42 0 49 -31 9 -44 14 -47 42 -26 l24 18 -25 26 c-19 18 -26 37 -26 65 -1 39 -2 40 -38 43 -26 2 -46 12 -64 32 -22 23 -33 27 -59 23 -19 -3 -35 0 -39 6 -13 20 -52 12 -66 -14 -7 -13 -21 -27 -32 -31 -10 -3 -18 -9 -18 -14 0 -14 25 -18 70 -10 63 12 70 6 63 -48 -3 -26 -12 -55 -20 -64 -20 -22 -8 -62 15 -53 48 18 70 17 82 -5 18 -33 6 -47 -47 -53 -26 -3 -59 -7 -73 -9 -22 -3 -26 2 -39 50 -15 58 -32 66 -69 32 -26 -24 -28 -36 -7 -44 20 -7 19 -49 -2 -69 -17 -15 -18 -13 -20 21 -1 20 -4 57 -5 82 -3 42 -1 45 29 53 25 8 35 6 48 -7 20 -20 32 -20 52 -1 14 14 14 18 -2 35 -10 11 -26 20 -35 20 -9 0 -26 10 -38 23 -11 12 -28 28 -37 35 -13 11 -15 24 -9 69 7 56 7 56 -18 50 -33 -9 -58 19 -60 65 -1 32 -2 34 -19 20 -9 -8 -15 -21 -12 -29 3 -7 -3 -23 -12 -33 -16 -18 -14 -25 8 -21 4 0 7 -3 7 -8 0 -5 11 -23 25 -39 26 -31 19 -52 -17 -52 -11 0 -18 -7 -18 -19 0 -11 -9 -23 -20 -26 -11 -3 -20 -10 -20 -14 0 -10 99 -6 124 4 21 9 46 -16 46 -46 0 -15 -9 -16 -81 -12 -78 6 -83 5 -100 -18 -16 -21 -18 -22 -24 -6 -4 9 -13 17 -21 17 -10 0 -12 8 -7 32 5 24 2 34 -13 45 -10 8 -24 28 -30 46 -9 26 -17 33 -47 38 -29 5 -37 3 -37 -9 0 -8 -8 -20 -17 -27 -13 -9 -14 -15 -5 -26 6 -8 25 -30 42 -50 16 -20 30 -46 30 -57 0 -27 34 -67 48 -58 7 4 12 19 12 34 1 23 2 25 11 9 5 -9 8 -21 4 -26 -3 -5 7 -23 21 -41 15 -17 24 -33 21 -36 -2 -3 -23 3 -46 12 -52 21 -66 10 -26 -21 16 -13 26 -27 23 -30 -11 -11 -46 14 -53 37 -4 13 -15 32 -25 43 -10 11 -21 37 -24 57 -4 21 -16 44 -26 51 -26 18 -50 78 -43 105 3 12 -2 38 -12 58 -16 35 -16 36 5 51 13 10 20 22 17 34 -3 10 1 26 9 36 13 17 16 16 39 -12 14 -16 25 -33 25 -37 0 -4 10 -8 23 -10 16 -2 26 -15 37 -45 10 -32 19 -42 35 -42 11 0 29 -1 40 -3 17 -3 20 3 23 45 2 26 -1 47 -7 47 -5 0 -13 9 -16 20 -5 15 -15 20 -41 20 -24 0 -34 4 -34 16 0 9 9 18 20 21 24 7 37 42 19 54 -9 5 -1 7 20 4 47 -5 91 5 91 21 0 9 11 14 31 14 20 0 29 -4 26 -12z m543 -1398 c33 -26 45 -30 84 -26 42 4 48 1 76 -30 33 -38 43 -104 16 -104 -20 0 -46 -45 -50 -85 -3 -39 -1 -37 -36 -52 -16 -6 -40 -37 -64 -81 -21 -39 -46 -72 -56 -75 -10 -2 -41 4 -69 14 -28 10 -80 20 -116 23 -39 4 -78 15 -100 28 l-37 21 -45 -22 c-43 -21 -46 -21 -72 -5 -14 10 -35 26 -46 36 -49 47 -99 78 -128 78 -43 0 -67 25 -67 72 0 32 5 41 26 50 22 10 33 8 81 -18 30 -16 70 -44 89 -61 38 -37 57 -35 80 8 18 36 59 39 98 8 15 -12 30 -19 33 -15 7 7 6 52 -2 92 -6 25 -3 33 18 47 17 11 29 33 38 67 10 40 16 49 28 44 9 -4 39 -10 66 -13 39 -5 52 -11 60 -28 10 -24 31 -37 45 -28 4 3 6 23 3 45 -3 22 -2 40 2 40 4 0 24 -14 45 -30z"/>
<path d="M5015 5888 c-84 -20 -89 -26 -109 -118 -3 -14 -15 -36 -25 -49 -18 -23 -26 -25 -123 -27 -59 -1 -124 -8 -151 -17 l-48 -15 -25 27 c-27 31 -87 55 -124 49 -14 -2 -34 -17 -47 -37 -23 -35 -24 -79 -1 -140 22 -59 20 -91 -6 -122 -14 -17 -26 -34 -26 -39 0 -4 -11 -15 -25 -24 -24 -16 -25 -15 -41 16 -30 60 -53 62 -97 12 -18 -20 -45 -43 -61 -51 l-28 -15 23 -25 c13 -15 17 -23 9 -18 -11 6 -12 5 -5 -3 6 -7 33 -16 59 -21 52 -9 69 -25 60 -53 -3 -10 -1 -18 5 -18 6 0 11 -20 11 -46 0 -36 4 -47 19 -51 10 -2 25 -20 34 -39 14 -29 22 -34 51 -34 19 0 41 -7 50 -15 17 -17 42 -20 51 -5 12 19 25 10 21 -15 -5 -28 31 -155 44 -155 4 0 13 7 20 15 24 29 32 16 25 -41 l-7 -57 60 7 60 7 15 -39 c17 -42 47 -58 76 -40 25 16 71 86 71 108 0 21 -20 26 -48 11 -28 -15 -106 49 -108 88 -2 28 1 31 27 31 34 0 36 13 9 58 -20 32 -43 41 -55 22 -9 -15 -56 -12 -75 5 -16 15 -60 10 -60 -6 0 -5 -4 -9 -10 -9 -5 0 -10 7 -10 15 0 8 9 15 19 15 13 0 21 8 23 22 4 27 61 68 94 68 20 0 23 4 18 28 -4 22 3 35 35 70 22 23 49 42 59 42 10 0 27 9 37 20 26 29 47 25 119 -20 35 -22 70 -40 78 -40 23 0 127 114 149 165 21 48 59 75 105 75 38 0 53 -26 54 -93 0 -55 -2 -60 -44 -105 -26 -28 -52 -69 -62 -97 -9 -28 -27 -63 -40 -78 -13 -16 -24 -39 -24 -52 0 -15 -13 -34 -37 -52 l-36 -30 28 -50 c34 -64 91 -121 134 -133 31 -9 34 -7 44 20 9 23 23 34 57 46 91 31 96 36 120 101 8 21 22 35 41 42 37 13 58 5 70 -27 11 -29 -7 -57 -95 -144 -31 -31 -56 -64 -56 -75 0 -11 -13 -35 -30 -53 -36 -41 -38 -66 -5 -113 13 -20 29 -56 35 -79 7 -24 20 -57 31 -74 10 -17 19 -49 19 -71 0 -29 6 -45 25 -61 13 -12 28 -34 31 -49 7 -27 50 -98 94 -155 15 -19 31 -28 50 -28 59 0 82 -55 51 -121 -12 -23 -21 -48 -21 -54 0 -19 -34 -52 -48 -47 -7 2 -27 -7 -45 -21 -18 -13 -43 -27 -57 -31 -14 -4 -35 -12 -47 -18 -27 -13 -53 4 -53 35 0 11 -9 34 -20 51 -12 20 -17 43 -14 59 4 22 1 27 -16 27 -12 0 -18 5 -15 10 3 6 15 10 26 10 23 0 25 28 3 56 -11 13 -17 15 -20 7 -9 -21 -26 -15 -19 7 4 11 0 29 -9 42 -9 12 -16 29 -15 38 0 11 2 11 6 2 4 -10 8 -10 19 -1 15 13 19 89 5 89 -5 0 -12 8 -15 18 -2 9 -7 27 -11 40 -3 12 -2 22 3 22 5 0 12 -10 15 -22 4 -12 10 -19 14 -14 10 10 10 66 1 66 -5 0 -8 18 -8 40 0 31 -5 43 -24 55 -23 15 -28 15 -70 -5 -25 -11 -53 -33 -63 -48 -9 -15 -27 -37 -39 -50 l-23 -22 -17 25 c-19 29 -59 33 -102 11 -41 -21 -117 -26 -148 -10 -33 18 -38 13 -38 -34 1 -20 -1 -30 -3 -22 -5 20 -71 69 -103 77 -37 9 -52 23 -40 38 14 17 -14 39 -40 32 -28 -7 -90 11 -97 28 -5 16 -58 45 -80 45 -7 0 -13 7 -13 16 0 13 6 15 28 10 71 -18 123 -22 132 -11 15 17 -38 62 -80 67 -19 3 -43 8 -53 13 -14 6 -18 1 -23 -24 -6 -26 -11 -31 -35 -31 -32 0 -37 -11 -14 -30 8 -7 15 -21 15 -32 0 -16 -5 -19 -22 -14 -13 3 -27 6 -31 6 -4 0 -7 6 -6 13 3 28 -2 38 -27 47 -21 9 -29 7 -40 -7 -21 -28 -16 -52 11 -65 27 -12 34 -43 11 -51 -8 -3 -27 -2 -43 2 -24 6 -28 13 -31 46 -3 37 -34 74 -54 67 -4 -1 -17 17 -29 39 l-21 42 23 30 c15 20 18 32 11 35 -7 2 -12 10 -12 17 0 21 -16 26 -44 14 -26 -12 -36 -39 -15 -39 5 0 7 -5 4 -10 -9 -14 -36 15 -41 43 -14 81 -16 86 -47 98 -23 10 -32 10 -35 1 -5 -17 -38 2 -53 30 -12 22 -12 22 15 4 33 -21 36 -19 29 17 -4 18 -12 27 -24 27 -29 0 -57 64 -41 91 7 11 10 25 6 31 -9 14 -78 4 -109 -16 -26 -17 -59 -82 -49 -97 3 -5 -4 -22 -15 -38 -12 -16 -21 -34 -21 -40 0 -6 -9 -15 -21 -21 -11 -7 -18 -18 -15 -25 3 -8 1 -17 -5 -20 -5 -4 -7 -10 -4 -15 3 -4 -7 -16 -22 -25 -23 -16 -25 -16 -20 -1 5 12 0 16 -23 16 -19 0 -30 -5 -30 -14 0 -18 27 -39 40 -31 6 4 10 -4 10 -19 0 -15 -8 -30 -20 -36 -11 -6 -23 -22 -26 -35 -8 -31 -39 -42 -60 -21 -15 16 -26 19 -91 30 -39 6 -63 -15 -43 -39 7 -8 22 -15 35 -15 12 0 30 -9 40 -20 10 -11 28 -20 39 -20 12 0 29 -8 37 -18 20 -24 22 -81 3 -89 -16 -6 -19 -34 -5 -48 30 -32 -5 -94 -44 -79 -31 12 -13 -39 18 -54 26 -13 31 -12 53 9 21 20 28 21 42 11 9 -7 25 -15 35 -18 9 -4 17 -10 17 -15 0 -16 38 -10 44 7 3 9 6 34 6 55 0 33 3 40 18 37 9 -1 23 1 30 5 7 5 12 3 12 -7 0 -8 -5 -18 -11 -22 -7 -4 -9 -21 -5 -43 4 -25 1 -44 -9 -58 -12 -17 -13 -28 -5 -49 6 -15 9 -28 8 -29 -18 -14 -48 -22 -69 -18 -30 5 -46 -11 -30 -30 5 -7 13 -32 17 -55 8 -50 12 -54 50 -43 41 11 45 41 5 41 -34 0 -41 19 -16 40 13 11 18 10 28 -4 12 -16 14 -16 26 -2 8 9 21 16 31 16 26 0 53 36 47 62 -4 13 -2 30 3 38 7 10 10 11 11 3 1 -7 2 -19 3 -25 3 -21 29 -10 58 24 39 45 50 29 40 -58 -6 -57 -11 -69 -25 -68 -18 2 -22 -25 -9 -59 6 -14 16 -8 62 40 38 41 63 58 80 58 23 0 25 3 21 45 -4 54 -4 54 -30 45 -14 -4 -21 -15 -21 -30 0 -17 -4 -23 -14 -19 -12 5 -12 10 -1 38 14 33 10 112 -6 122 -5 3 -9 14 -9 24 0 10 -5 22 -12 26 -14 9 -58 -40 -58 -66 0 -37 -12 -50 -46 -50 -19 0 -34 4 -34 8 0 11 60 92 69 92 4 0 15 14 25 30 10 18 22 28 29 23 7 -4 6 1 -2 11 -10 12 -23 16 -42 12 -15 -3 -35 1 -45 9 -17 12 -16 14 19 20 20 4 47 5 60 1 14 -3 32 1 43 9 32 24 46 19 39 -15 -4 -19 -3 -30 4 -30 6 0 11 3 11 8 0 17 51 29 104 24 49 -4 54 -6 39 -18 -17 -12 -17 -13 2 -19 40 -13 44 -14 49 -6 3 4 42 11 86 14 94 7 100 10 100 43 0 42 36 31 59 -18 11 -24 34 -52 50 -63 17 -11 33 -27 36 -36 3 -9 15 -19 25 -22 11 -3 20 -10 20 -16 0 -12 -46 -15 -52 -3 -5 12 -68 42 -68 32 0 -6 -6 -10 -12 -10 -7 0 -19 -4 -25 -8 -21 -13 22 -87 50 -87 12 -1 36 -10 54 -20 24 -15 31 -26 31 -47 -1 -37 7 -44 37 -30 40 19 57 15 53 -10 -3 -23 -9 -24 -58 -13 -21 5 -28 0 -43 -27 l-19 -33 33 -27 c38 -32 69 -35 104 -12 30 20 60 12 102 -29 l32 -30 91 10 c77 9 98 8 137 -6 25 -9 49 -23 53 -31 4 -8 14 -28 21 -44 8 -16 19 -30 26 -32 7 -2 21 -7 31 -11 9 -4 33 -7 52 -8 34 0 35 -1 34 -35 -1 -19 -5 -53 -9 -76 -9 -50 13 -98 56 -122 16 -10 31 -22 33 -28 5 -14 -94 -94 -117 -94 -10 0 -29 7 -42 16 -29 19 -101 14 -138 -11 -16 -10 -34 -14 -48 -10 -18 6 -20 12 -16 42 8 44 -15 54 -49 22 -30 -28 -43 -18 -51 39 -7 49 -33 78 -59 64 -18 -10 -92 2 -108 18 -6 6 -3 17 7 28 21 23 22 58 2 66 -8 3 -15 14 -15 25 0 11 -4 23 -10 26 -5 3 -10 -3 -10 -14 0 -11 5 -23 10 -26 14 -8 13 -42 -1 -51 -7 -4 -20 4 -31 17 -12 15 -18 18 -15 7 14 -42 19 -88 9 -88 -5 0 -12 6 -15 14 -9 23 -57 30 -72 9 -11 -15 -17 -16 -53 -4 -42 14 -55 30 -46 56 6 16 34 27 55 23 19 -4 12 33 -9 49 -13 11 -19 8 -36 -24 -21 -35 -33 -46 -68 -57 -10 -3 -18 -12 -18 -20 0 -11 8 -12 35 -6 26 6 35 5 35 -5 0 -7 16 -23 35 -35 38 -23 44 -40 20 -60 -8 -7 -15 -18 -15 -26 0 -16 -54 -55 -83 -59 -38 -5 -58 -17 -55 -34 2 -9 13 -17 24 -19 12 -2 32 -14 45 -28 12 -13 32 -24 43 -24 19 1 19 2 5 13 -9 7 -14 18 -11 26 3 9 0 11 -9 7 -8 -4 -3 2 10 13 24 22 61 28 61 12 0 -6 12 -16 26 -23 15 -7 25 -17 23 -23 -4 -10 -9 -12 -41 -14 -11 -1 -18 -9 -18 -21 0 -12 -7 -20 -16 -20 -24 0 32 -43 60 -46 11 -1 24 -3 29 -3 4 -1 7 -7 7 -14 0 -33 23 -37 68 -11 24 14 46 23 49 20 4 -3 1 -6 -5 -6 -31 0 -39 -150 -11 -203 10 -18 12 -18 30 -1 10 9 19 27 19 40 0 27 27 45 49 34 9 -5 24 -11 34 -14 26 -8 21 -33 -10 -48 -30 -15 -42 -38 -20 -38 8 0 20 -7 27 -15 17 -21 24 -19 57 15 40 43 103 40 103 -6 0 -2 -11 -4 -24 -4 -13 0 -26 -7 -30 -15 -3 -9 -27 -25 -52 -36 -49 -20 -50 -24 -12 -44 19 -9 23 -18 20 -51 -2 -36 -1 -38 13 -19 30 42 34 44 72 38 33 -6 36 -4 28 13 -17 40 -11 59 17 60 15 1 33 6 40 12 21 17 55 -17 61 -63 4 -26 18 -50 41 -74 l35 -34 55 29 c52 27 56 32 58 67 1 20 2 51 3 68 l2 32 -91 -6 c-90 -5 -91 -5 -46 9 25 8 56 13 70 10 14 -2 33 0 44 6 10 6 31 14 47 18 23 7 27 6 22 -8 -4 -10 -11 -20 -17 -24 -6 -4 6 -7 27 -6 34 1 37 4 37 30 0 21 -5 28 -19 28 -11 0 -25 13 -35 34 -18 39 -20 56 -6 56 14 0 12 33 -2 49 -11 11 -10 13 4 8 12 -4 21 1 28 14 6 11 16 17 21 13 7 -4 7 1 0 14 -6 11 -11 30 -11 41 0 10 -8 33 -17 50 -14 24 -15 33 -5 43 9 9 12 6 12 -20 0 -21 6 -35 20 -42 11 -6 21 -8 21 -5 6 23 19 57 30 79 7 13 7 16 0 11 -7 -4 -11 5 -11 22 0 16 -7 39 -16 52 -15 21 -15 24 0 39 13 13 34 17 89 16 60 -1 79 -6 111 -28 21 -14 47 -26 56 -26 16 0 30 -23 44 -75 4 -14 20 -24 53 -32 67 -16 110 5 141 70 17 35 28 47 45 47 12 0 29 4 37 10 12 7 12 12 1 34 -12 22 -12 29 2 50 11 16 16 42 14 76 -2 48 1 54 31 80 28 23 46 29 115 35 45 4 91 12 102 17 34 19 56 51 53 79 -1 15 4 39 11 53 14 24 13 28 -13 55 -27 28 -28 33 -21 87 l7 57 -53 53 c-50 50 -52 54 -45 93 3 23 1 72 -4 109 -12 73 -29 98 -93 138 -20 14 -66 54 -101 89 -35 36 -69 65 -76 65 -7 0 -28 -8 -47 -17 -34 -16 -36 -16 -49 2 -15 21 -9 55 12 68 7 4 22 21 34 37 19 26 19 33 9 77 -7 26 -20 59 -31 72 -10 13 -23 41 -28 63 -7 23 -28 56 -51 79 -22 22 -47 59 -55 82 -8 23 -24 57 -35 77 -18 29 -24 59 -28 123 -1 4 -21 16 -45 27 -36 15 -46 26 -56 57 -18 54 -35 70 -83 76 -31 4 -48 14 -68 39 -36 43 -105 183 -114 228 -11 61 -26 89 -59 109 -17 11 -42 30 -56 41 -23 19 -126 52 -153 49 -7 -1 -30 -6 -52 -11z m513 -1314 c7 -13 18 -15 63 -7 32 5 78 4 112 -1 48 -8 68 -7 105 6 25 9 49 15 54 12 4 -3 8 -38 8 -78 0 -59 -4 -78 -21 -100 -19 -24 -27 -26 -92 -26 -91 0 -135 -13 -162 -46 -17 -22 -27 -26 -49 -20 -30 7 -43 34 -53 105 -4 27 -14 51 -24 58 -18 14 -35 85 -24 103 10 16 73 12 83 -6z"/>
<path d="M3030 4850 c0 -7 -18 -8 -50 -4 -41 5 -51 4 -56 -10 -5 -12 -10 -14 -19 -6 -10 8 -22 7 -46 -5 -20 -11 -43 -15 -62 -11 -29 6 -29 5 -23 -26 8 -43 51 -81 82 -74 18 5 24 2 24 -10 0 -13 6 -15 31 -10 18 3 37 13 44 23 11 15 14 15 43 -3 32 -18 32 -18 53 3 28 27 19 53 -18 53 l-28 1 24 19 c16 14 31 18 50 13 25 -6 25 -5 9 14 -10 11 -18 25 -18 31 0 7 -9 12 -20 12 -11 0 -20 -5 -20 -10z"/>
<path d="M4520 4710 c0 -6 9 -28 20 -50 11 -22 20 -46 20 -54 0 -18 88 -66 108 -59 7 3 22 -3 33 -13 15 -13 22 -15 31 -6 7 7 20 12 29 12 26 0 30 24 10 61 -24 45 -35 46 -66 5 -37 -49 -95 -46 -95 5 0 9 -7 22 -15 29 -8 7 -15 23 -15 36 0 17 -8 28 -26 34 -32 12 -34 12 -34 0z"/>
<path d="M1976 4679 c-20 -15 -24 -25 -17 -32 18 -18 13 -27 -14 -27 -26 0 -37 -17 -63 -98 -16 -50 12 -59 101 -35 9 2 17 11 17 19 0 8 7 14 16 14 24 0 54 -19 54 -35 0 -21 49 -30 84 -16 17 7 47 13 66 14 32 2 35 5 38 36 l3 34 -40 -6 c-24 -3 -44 -1 -47 5 -4 6 -32 9 -70 5 -35 -2 -64 -2 -64 1 0 3 9 16 21 28 11 12 23 41 25 64 l5 43 -32 -7 c-17 -3 -37 -2 -44 4 -9 7 -20 4 -39 -11z"/>
<path d="M3104 4633 c-3 -10 -9 -25 -14 -35 -5 -9 -6 -32 -3 -52 6 -36 5 -36 -21 -26 -42 15 -45 13 -28 -25 17 -36 30 -43 49 -24 15 15 53 2 53 -19 0 -13 2 -13 15 4 8 10 15 27 15 37 0 9 6 17 13 17 15 0 57 33 57 45 0 4 -6 2 -14 -4 -7 -6 -21 -8 -30 -5 -11 4 -22 -1 -32 -15 -20 -28 -36 -18 -28 17 10 40 11 41 50 30 41 -11 53 -5 34 17 -13 16 -86 55 -102 55 -5 0 -11 -8 -14 -17z"/>
<path d="M3441 4438 c5 -17 8 -32 6 -32 -1 -1 -12 -7 -24 -13 -26 -15 -56 -6 -49 13 11 28 -13 23 -37 -7 -23 -30 -25 -30 -53 -17 -25 13 -34 13 -71 -1 -41 -16 -41 -16 -27 -44 14 -26 34 -29 34 -4 0 7 4 18 9 26 7 11 13 9 31 -9 12 -12 19 -28 16 -36 -3 -8 -2 -22 3 -32 5 -9 12 -25 15 -35 3 -10 10 -16 15 -12 5 3 12 1 16 -5 8 -12 16 -12 35 0 13 8 10 14 -15 34 -30 24 -30 24 -10 46 15 17 26 20 55 15 34 -6 38 -3 63 32 29 43 27 87 -4 103 -16 9 -17 7 -8 -22z"/>
<path d="M4102 3958 c-7 -7 -20 -13 -30 -14 -9 0 -29 -1 -43 -2 -21 -2 -28 -8 -32 -32 -4 -16 -16 -38 -27 -47 -11 -10 -20 -23 -20 -30 0 -7 -11 -13 -25 -13 -23 0 -24 2 -15 20 6 11 8 25 5 30 -10 16 -39 11 -52 -8 -8 -14 -20 -18 -43 -14 -44 6 -82 -15 -74 -42 4 -12 13 -29 22 -39 11 -12 16 -42 18 -100 1 -45 5 -92 9 -104 6 -18 2 -25 -17 -34 -22 -10 -25 -17 -25 -68 -1 -69 11 -95 30 -69 7 9 20 16 28 15 33 -4 21 22 -19 39 -6 3 33 80 61 122 15 23 34 42 42 42 9 0 15 10 15 25 0 14 15 56 33 94 33 73 35 74 94 56 18 -6 3 -45 -18 -45 -22 0 -51 -41 -55 -78 -7 -68 -18 -94 -49 -118 -18 -13 -39 -23 -46 -22 -10 2 -13 -6 -11 -27 3 -43 32 -135 42 -135 4 0 29 28 54 63 69 95 98 125 116 120 32 -9 44 25 46 133 2 83 0 104 -11 104 -21 0 -27 17 -14 42 10 18 8 24 -6 35 -16 11 -17 17 -6 39 7 15 17 24 25 21 17 -7 36 12 36 35 0 21 -20 24 -38 6z"/>
<path d="M4882 3763 c-9 -19 -23 -33 -33 -33 -23 0 -50 -27 -43 -44 4 -11 18 -20 67 -44 4 -2 7 3 7 11 0 8 7 20 16 28 13 11 21 7 52 -24 33 -34 35 -37 20 -54 -9 -10 -19 -37 -23 -59 -6 -39 -5 -42 21 -48 40 -10 53 8 31 46 -16 28 -16 33 -2 54 8 13 15 32 15 43 0 11 14 36 30 54 37 42 37 47 3 47 -34 0 -46 8 -61 37 -9 17 -20 21 -48 20 -31 -2 -39 -7 -52 -34z"/>
<path d="M4215 3760 c-10 -11 -24 -20 -30 -20 -16 0 -25 -23 -25 -61 0 -18 5 -29 14 -29 20 0 37 25 30 44 -8 22 13 21 24 -1 21 -42 22 -85 3 -110 -22 -26 -18 -56 7 -51 24 5 52 50 57 93 8 74 14 105 21 116 4 8 0 8 -14 0 -34 -18 -54 -14 -50 11 4 29 -14 33 -37 8z"/>
<path d="M4132 3517 c-35 -36 -40 -62 -17 -87 12 -13 13 -23 6 -43 -11 -27 -6 -37 17 -37 11 0 13 8 9 34 -4 27 0 41 19 63 23 26 26 26 35 10 7 -12 17 -15 37 -11 27 6 72 49 72 69 0 17 -87 5 -108 -16 -18 -16 -22 -16 -33 -3 -9 11 -9 18 -1 26 7 7 12 16 12 20 0 16 -17 7 -48 -25z"/>
<path d="M6195 3083 c-34 -24 -49 -28 -100 -26 -37 1 -87 -6 -130 -19 -78 -23 -176 -20 -205 7 -49 44 -71 -5 -73 -167 -2 -116 -1 -125 23 -156 22 -30 23 -35 11 -65 -24 -59 -69 -203 -76 -245 -6 -36 -4 -44 19 -65 15 -14 48 -30 74 -37 96 -24 104 -33 123 -129 12 -58 33 -81 76 -81 28 0 39 8 76 55 29 38 58 63 94 80 55 27 53 22 93 175 7 25 29 81 50 125 21 45 42 93 46 109 5 19 17 33 42 43 l35 14 -7 62 c-4 47 -2 69 10 92 28 54 0 159 -60 223 -37 40 -68 41 -121 5z"/>
<path d="M4850 2783 c-1 -10 -9 -36 -20 -58 -11 -22 -19 -46 -20 -53 0 -7 -7 -15 -16 -19 -14 -5 -15 -16 -10 -65 5 -39 3 -58 -4 -58 -6 0 -14 -8 -17 -17 -4 -10 -13 -24 -20 -31 -7 -7 -15 -29 -18 -50 -3 -20 -10 -45 -15 -54 -6 -11 -6 -27 0 -42 7 -19 5 -30 -11 -50 -23 -29 -17 -50 12 -43 16 4 15 0 -8 -44 -14 -28 -22 -56 -19 -66 6 -14 10 -13 32 8 14 13 34 23 44 21 10 -2 24 6 32 16 7 10 24 24 37 31 20 11 26 10 50 -13 41 -40 67 -33 36 8 -8 11 -15 23 -15 28 0 18 57 6 84 -17 16 -14 36 -25 45 -26 9 -1 25 -2 36 -3 15 -1 20 -9 21 -31 1 -16 6 -47 12 -69 9 -33 8 -44 -8 -75 -10 -20 -24 -49 -32 -65 -7 -16 -26 -35 -43 -42 -16 -7 -36 -22 -43 -34 -7 -12 -28 -28 -46 -35 -29 -12 -35 -20 -40 -59 -4 -25 -18 -61 -32 -81 -40 -60 -25 -141 22 -109 7 5 31 22 52 37 48 34 78 27 105 -26 12 -22 34 -41 58 -52 22 -10 44 -24 50 -31 17 -21 39 -148 32 -188 -7 -42 12 -93 38 -107 13 -7 31 -6 57 2 34 10 44 8 81 -10 33 -17 52 -21 85 -16 25 4 52 2 64 -4 16 -9 33 -5 84 20 34 16 79 41 98 55 68 48 73 57 76 133 2 44 10 84 23 108 17 33 25 81 22 120 -2 26 -54 73 -92 83 -22 6 -61 24 -87 40 -26 16 -65 39 -87 51 -58 31 -135 109 -135 136 0 14 -6 23 -15 23 -27 0 -16 18 19 31 34 12 56 43 56 78 0 12 17 28 48 44 34 18 50 33 57 56 5 17 14 31 21 31 15 0 24 23 24 66 0 42 -31 65 -92 68 -38 2 -45 6 -60 37 -22 47 -42 63 -64 51 -11 -6 -13 -11 -5 -16 6 -4 11 -24 11 -44 -1 -33 -2 -35 -12 -17 -6 10 -13 35 -14 55 -2 19 -3 40 -4 45 0 6 -10 21 -21 35 -17 19 -31 24 -75 26 -30 1 -58 5 -61 8 -4 3 -17 6 -31 6 -13 0 -39 7 -58 16 l-35 17 21 22 c13 14 20 35 20 62 0 36 -4 42 -30 53 -33 14 -50 37 -50 69 0 38 -25 22 -54 -35 -22 -41 -39 -60 -63 -70 -44 -19 -46 -18 -38 16 6 26 4 30 -14 30 -23 0 -28 19 -10 37 14 14 8 55 -8 61 -7 2 -13 -5 -13 -15z"/>
<path d="M3727 2003 c-4 -3 -7 -16 -7 -29 0 -15 -12 -29 -35 -43 -19 -11 -35 -25 -35 -31 0 -6 -9 -21 -20 -32 -14 -16 -17 -24 -8 -29 9 -6 9 -11 -1 -23 -18 -21 -34 -20 -27 2 17 57 17 69 -3 93 -20 23 -22 23 -35 6 -12 -15 -21 -17 -48 -11 -18 4 -37 7 -41 6 -20 -5 -49 21 -44 40 4 14 2 18 -10 14 -8 -3 -18 -6 -23 -6 -4 0 -6 -9 -3 -19 4 -15 -3 -23 -32 -35 -35 -15 -36 -17 -33 -63 4 -58 28 -69 65 -29 13 14 29 26 35 26 6 0 20 7 30 17 17 15 18 15 18 -1 0 -10 -10 -26 -22 -36 -21 -17 -22 -21 -9 -42 10 -18 10 -20 0 -10 -7 6 -27 12 -45 12 -17 0 -35 -6 -38 -12 -19 -40 -44 -73 -61 -82 -34 -19 -40 -32 -26 -55 7 -11 13 -10 32 8 12 11 29 21 36 21 18 0 16 -35 -2 -50 -8 -7 -15 -21 -15 -32 0 -16 4 -18 23 -12 25 8 50 12 90 13 22 1 28 5 25 19 -3 12 -12 16 -32 14 -22 -2 -27 1 -24 15 2 11 14 19 29 21 22 3 28 -4 51 -56 17 -39 32 -61 47 -65 12 -3 21 0 21 6 0 7 4 6 9 -2 14 -21 87 3 128 41 l32 31 40 -21 c24 -13 43 -17 46 -12 3 6 15 10 26 10 16 0 18 -5 13 -26 -6 -22 -4 -25 12 -22 10 2 21 14 24 28 9 34 42 29 79 -12 27 -31 28 -34 15 -60 -9 -18 -12 -41 -8 -67 6 -36 4 -41 -19 -52 -46 -21 -77 -152 -39 -166 9 -3 30 -15 45 -26 19 -13 32 -16 40 -9 7 5 31 13 54 17 24 4 45 11 49 16 8 13 24 1 34 -27 11 -27 41 -32 59 -10 9 11 9 16 0 22 -9 5 -7 9 8 15 11 4 26 20 34 36 15 30 43 41 63 24 8 -7 21 -6 40 4 16 8 36 15 46 15 10 0 23 7 30 15 7 8 23 15 35 15 75 0 108 24 121 86 5 26 0 36 -31 67 -24 24 -46 37 -64 37 -38 0 -71 34 -72 73 -1 29 -2 30 -8 7 -6 -21 -10 -14 -25 43 -12 43 -23 67 -33 67 -23 0 -63 47 -63 75 0 14 -7 28 -15 31 -8 3 -23 21 -33 39 -15 24 -29 34 -58 40 -22 4 -45 12 -52 17 -9 8 -17 6 -30 -5 -9 -8 -26 -17 -37 -19 -18 -3 -20 3 -23 55 -3 48 -6 57 -22 57 -23 0 -40 -28 -40 -68 0 -33 -21 -38 -46 -11 -14 15 -18 16 -42 3 -15 -8 -36 -14 -47 -14 -12 0 -26 -5 -33 -12 -8 -8 -15 -8 -26 1 -9 7 -15 16 -14 19 0 4 0 31 -1 60 -1 48 -8 62 -24 45z"/>
<path d="M3664 1516 c-3 -8 -16 -18 -27 -22 -12 -3 -28 -11 -36 -18 -8 -6 -27 -11 -42 -12 -65 -3 -79 -36 -32 -74 l27 -21 27 32 c27 34 29 33 64 -16 26 -37 49 15 31 70 -6 16 -1 23 24 32 38 14 35 37 -3 41 -17 2 -29 -2 -33 -12z"/>
<path d="M4681 1138 c3 -54 -14 -86 -49 -95 -35 -9 -50 -6 -80 18 -34 26 -56 24 -94 -10 -44 -37 -73 -52 -115 -57 -30 -4 -41 2 -96 53 -34 32 -66 63 -70 68 -6 6 -10 6 -13 -2 -10 -23 -70 -26 -113 -7 -42 18 -50 29 -28 37 6 3 2 6 -11 6 -13 1 -21 -3 -17 -8 17 -28 -111 -105 -164 -99 -30 4 -51 -29 -51 -79 0 -39 19 -43 65 -13 25 16 32 17 45 5 8 -7 29 -15 45 -17 23 -2 31 -9 33 -27 3 -19 6 -21 13 -10 7 12 9 11 9 -2 0 -8 -14 -28 -30 -44 -35 -33 -36 -64 -4 -80 67 -33 68 -75 4 -135 -32 -30 -40 -44 -40 -73 0 -19 3 -43 6 -52 10 -24 58 -45 106 -45 26 0 55 -8 73 -20 24 -16 40 -19 80 -14 28 4 59 15 70 25 18 16 27 17 58 8 20 -5 37 -14 37 -18 0 -5 16 -16 35 -25 28 -14 38 -14 54 -4 17 10 26 10 50 -5 16 -9 32 -17 35 -17 3 0 17 19 32 41 25 40 27 41 69 36 53 -8 64 1 105 78 35 64 37 67 138 193 37 46 77 96 88 110 32 40 36 63 15 98 -12 20 -34 36 -67 48 -131 47 -143 55 -165 118 -16 43 -27 58 -41 58 -16 0 -19 -7 -17 -42z"/>
</g>
</svg>